<?xml version="1.0" encoding="UTF-8"?> <svg xmlns="http://www.w3.org/2000/svg" width="19" height="19" viewBox="0 0 19 19" fill="none"> <g opacity="0.2"> <path d="M19 4.73177V4.43196C19 3.30312 18.0816 2.38477 16.9528 2.38477H2.04719C0.918353 2.38477 0 3.30312 0 4.43196V4.73177V4.73396V14.5678C0 15.6966 0.918353 16.6149 2.04719 16.6149H16.9529C18.0817 16.6149 19 15.6966 19 14.5678V4.73396C19 4.73325 19 4.73251 19 4.73177ZM2.04719 3.49806H16.9528C17.4677 3.49806 17.8867 3.91699 17.8867 4.43196V4.43222L10.4315 9.40232C9.9353 9.73315 9.06478 9.73311 8.56862 9.40235L1.11329 4.43218V4.43192C1.11329 3.91699 1.53222 3.49806 2.04719 3.49806ZM16.9529 15.5016H2.04719C1.53222 15.5016 1.11329 15.0827 1.11329 14.5678V5.77017L7.95108 10.3286C8.38541 10.6182 8.94261 10.7629 9.50004 10.7629C10.0573 10.7629 10.6148 10.6182 11.0491 10.3286L17.8867 5.77017V14.5678C17.8867 15.0827 17.4678 15.5016 16.9529 15.5016Z" fill="black"></path> </g> </svg> 