<?xml version="1.0" encoding="UTF-8"?> <svg xmlns="http://www.w3.org/2000/svg" fill="#e61a66" viewBox="0 0 512 512"><path d="M305 256a49 49 0 1 1-98 0 49 49 0 0 1 98 0m65.6-86.7a46 46 0 0 0-11-16.9 46 46 0 0 0-16.9-11 81 81 0 0 0-27.3-5c-15.5-.8-20.1-1-59.4-1s-43.9.2-59.4 1a81 81 0 0 0-27.3 5 46 46 0 0 0-16.9 11 46 46 0 0 0-11 16.9 81 81 0 0 0-5 27.3c-.8 15.5-1 20.2-1 59.4s.2 43.9 1 59.4a81 81 0 0 0 5 27.3 46 46 0 0 0 11 16.9 46 46 0 0 0 16.9 11 81 81 0 0 0 27.3 5c15.5.8 20.1 1 59.4 1s43.9-.2 59.4-1a81 81 0 0 0 27.3-5c12.8-5 23-15 27.9-27.9a81 81 0 0 0 5-27.3c.8-15.5 1-20.1 1-59.4s-.2-43.9-1-59.4a81 81 0 0 0-5-27.3M256 331.5a75.5 75.5 0 1 1 0-151 75.5 75.5 0 0 1 0 151m78.5-136.3a17.7 17.7 0 1 1 0-35.3 17.7 17.7 0 0 1 0 35.3M256 0a256 256 0 1 0 0 512 256 256 0 0 0 0-512m146.1 316.6c-.7 15.7-3.2 26.3-6.8 35.7a75 75 0 0 1-43 43 108 108 0 0 1-35.7 6.8c-15.7.7-20.7.9-60.6.9s-45-.2-60.6-.9a108 108 0 0 1-35.7-6.8 72 72 0 0 1-26-17 72 72 0 0 1-17-26c-3.6-9.4-6.1-20-6.8-35.7S109 296 109 256l.9-60.6c.7-15.6 3.2-26.3 6.8-35.7a72 72 0 0 1 17-26 72 72 0 0 1 26-17 108 108 0 0 1 35.7-6.8c15.7-.7 20.7-.9 60.6-.9s45 .2 60.6.9a108 108 0 0 1 35.7 6.8 72 72 0 0 1 26 17 72 72 0 0 1 17 26c3.6 9.4 6.1 20 6.8 35.7s.9 20.7.9 60.6-.2 45-.9 60.6m0 0"></path></svg> 