<?xml version="1.0" encoding="UTF-8"?> <svg xmlns="http://www.w3.org/2000/svg" width="512" height="512" viewBox="0 0 512 512" fill="none"> <path d="M437.019 74.982C388.667 26.629 324.38 0.000976562 255.999 0.000976562C187.618 0.000976562 123.333 26.629 74.981 74.982C26.629 123.333 0 187.62 0 256C0 324.38 26.629 388.668 74.981 437.019C123.333 485.372 187.621 512 256.001 512C324.381 512 388.669 485.371 437.02 437.019C485.372 388.668 512.001 324.38 512.001 256C512.001 187.62 485.371 123.333 437.019 74.982ZM135.709 155.76H376.291C384.808 155.76 391.713 162.665 391.713 171.181C391.713 179.698 384.808 186.603 376.291 186.603H135.709C127.192 186.603 120.288 179.698 120.288 171.181C120.287 162.665 127.192 155.76 135.709 155.76ZM376.291 356.24H135.709C127.192 356.24 120.288 349.335 120.288 340.819C120.288 332.302 127.193 325.398 135.709 325.398H376.291C384.808 325.398 391.713 332.303 391.713 340.819C391.713 349.335 384.808 356.24 376.291 356.24ZM396.853 271.421H115.147C106.63 271.421 99.726 264.516 99.726 256C99.726 247.483 106.631 240.579 115.147 240.579H396.853C405.37 240.579 412.274 247.484 412.274 256C412.274 264.517 405.37 271.421 396.853 271.421Z" fill="#E61A66"></path> </svg> 