<?xml version="1.0" encoding="UTF-8"?> <svg xmlns="http://www.w3.org/2000/svg" fill="none" viewBox="0 0 1042 633"><g clip-path="url(#a)"><path fill="url(#b)" d="M222 225v3q-33 3-67 14c-44 15-89 37-123 71-25 25-43 64-24 98 18 34 59 46 95 46 74 0 144-30 202-73q0 14 4 24c14 46 69 26 97 6l16-12 20-18q2 15 6 27c21 48 81 16 107-7q11-7 18-18l2 24c5 24 26 28 48 24 36-8 70-33 99-53l6 26c10 28 39 33 64 24 44-14 74-57 113-79q21-12 45-14c8-1 21 1 27-5s5-20 7-28l14-34c-64 0-102 55-150 89q-21 17-47 24-10 5-22 0c-6-4-15-20-8-27 8-9 22-14 32-20 27-16 56-35 74-61 14-22 17-56-16-60-54-9-99 48-119 90l-11 28-5 16q-7 8-18 12c-15 9-47 28-66 19q-10-8-9-24 5-25 17-48l25-47c3-5 7-15 12-19q6-2 14-1c11 0 31 4 41 0 9-3 19-22 23-30q4-6 0-11l-18-3h-33l47-66c-11 0-26-3-37 4-16 9-29 32-39 46l-12 15q-6 2-14 1c-9 0-24-2-34 0l-9 10c-6 11-16 23-20 34h49l-38 64q-25 40-63 69c-18 13-50 33-62 3l-2-14c-3-16 10-23 20-34q28-25 49-58c6-10 16-33-1-39-17-5-37 12-47 24-28 34-45 78-79 108-12 11-48 41-63 17-5-8-10-28-5-37l12-10 23-22a394 394 0 0 0 119-194c1-7 1-18-8-20-27-4-58 24-76 41a485 485 0 0 0-112 187q-5 6-14 8l-32 15c-46 22-103 47-156 42l-18-5q-6-1-11-6c-24-22 3-54 21-69 45-40 111-48 167-61 19-6 53-9 51-35-2-21-21-22-37-22-21 0-41 2-63-3q-16-2-28-16c-5-8-2-21 3-29 11-18 32-30 50-39q44-22 90-31 88-19 176-16c22 1 47 4 66 14 11 5 20 15 12 27q-2 7-7 11-5 8-13 12c9 4 25-5 32-9 23-9 48-23 64-41 9-11 14-26 5-39-14-21-47-26-71-30Q434-13 276 36q-63 19-112 60c-29 25-45 78-13 108 20 17 47 21 71 21m356-73c-17 2-31 18-33 35-2 19 15 31 32 29 15-3 29-18 29-34 2-16-9-34-28-30M357 300c2-17 11-34 19-49q22-38 49-71 12-13 26-24 6-3 13-2 3 5 0 12-4 17-13 30-27 44-63 78c-9 9-19 21-31 26m414 30c2-26 24-57 42-72 7-7 23-16 32-8 10 8-1 22-6 28a204 204 0 0 1-68 52m182 43q-23 3-31 26c-7 25 12 54 39 50q18-2 29-16c18-26-4-66-37-60m-1 6c43-6 53 58 10 64-40 5-50-59-10-64m-10 12v40h6v-17c14 0 14 17 27 17q-3-11-14-17c9-4 19-16 5-22q-12-3-24-1m6 18v-14q9 0 15 2 7 6-2 11z"></path></g><g clip-path="url(#c)"><path fill="#444" d="M448 632c-14-3-20-13-13-22l3-4 2-1q3-2-1-4-2-2-2-8-1-4 4-9l4-5-3-3q-6-7-6-16 1-11 7-17c6-5 10-5 32-4h19v3q2 4-6 3h-7l2 4q2 3 2 11 0 13-10 18c-6 3-16 5-21 3q-5-2-6 2-5 5-2 9 1 3 20 3c12 0 14 0 18 2q9 4 8 16-1 11-12 16c-6 3-7 3-17 4zm27-7q8-4 6-13c-1-6-4-7-18-8l-15 1-4 6q-3 5-1 8 1 6 8 8c5 2 20 1 24-2m-8-50c6-3 9-16 6-24-5-10-18-12-23-3-3 5-3 17 0 22q6 10 17 5m404 56 3-3q4-1 4-4v-77q-1-3-4-4-9-5 11-5h5v11l6-4q8-7 17-7 13 0 19 14c2 4 2 6 2 18 1 13 0 13-3 20q-3 7-9 10-9 6-23 3l-7-2q-2-2-2 10c0 12 1 15 5 17l3 3-13 1zm43-34q6-4 8-15c2-8 1-21-2-27-4-11-17-13-26-3-4 4-4 7-4 24 0 12 1 14 3 17 4 6 14 8 21 4m-822 6q-20-6-19-34 1-15 8-22c6-7 10-8 22-8 9 0 11 0 15 2q8 5 12 15c2 7 2 21 0 28q-5 12-15 17c-6 3-17 3-23 2m18-6 6-8c2-4 3-6 3-16l-1-16c-4-13-15-18-25-11-8 5-11 32-4 44q9 13 21 7m51 5c-8-4-8-6-9-33 0-23-1-23-3-25l-4-2-1-1q-1-2 9-2h10v24c1 26 1 28 5 31q7 5 16-1c7-5 7-6 7-27l-1-20-4-4q-8-3 7-3h9v27c0 29 0 30 5 33l3 3-9 1h-10l1-4q2-10-5-3-14 12-26 6m434 1q-6-2-9-7c-1-3-2-8-2-27v-24h-5q-9 0-2-4 7-3 8-13l1-6h9v17h22v6h-22v18c0 22 1 28 5 31q6 5 13 0 3-3 4 0 3 3-7 8-8 3-15 1m154-1q-16-5-17-28 0-34 29-36 22 0 25 25v7h-42v5q1 14 10 20c6 3 17 1 24-5q3-3 5 0 3 2-2 5-15 12-32 7m25-43q-3-16-13-16-14 0-17 17v4h30zm44 43q-9-3-13-8-5-8-5-22 0-32 27-34c11 0 16 1 23 7q9 10 8 28-1 22-16 28c-7 3-18 4-24 1m21-8c5-5 6-10 6-23q0-25-13-28-11-3-17 10c-2 3-2 5-2 17 0 13 0 14 3 19q4 11 14 10 6 0 9-5m167 9q-15-4-18-24-3-21 9-33 7-8 20-8 15 0 20 11c3 5 5 18 4 20l-21 1h-21v6q2 13 8 17c4 3 13 4 18 2l8-4q3-4 5-1 3 0-1 5c-8 7-21 11-31 8m23-42q-1-21-17-18-9 3-12 17l-1 4h30zM23 601l3-2c5-2 5-4 6-20v-14l-11-21a149 149 0 0 0-21-32l15-1 14 1-3 3c-6 2-5 5 5 24l9 17c1 0 17-28 18-33q1-6-3-8l-2-3 13-1 12 1-5 6q-5 5-17 26l-12 20v15c0 13 0 15 2 17l4 3 3 3-15 1c-13 0-15 0-15-2m199 1 3-4q4-1 4-7v-45l-5-3-3-3q2-2 15-2h5l-1 6v6l5-4q8-9 18-8h7v15h-3q-3 0-7-4-3-4-7-3-6 2-11 9l-1 21c0 20 0 22 5 23l3 3-13 1zm90-1 2-2 4-3 1-39-1-39-4-3-2-2c0-2 3-2 19-2 20 0 28 1 34 4 10 5 13 17 9 28q-3 10-13 15l-5 2 5 5 12 17c7 13 9 15 13 17l3 3-9 1h-9l-3-3-19-34q-3-4-10-3h-7v16l1 17 4 3 3 3-14 1c-12 0-14 0-14-2m41-46q11-6 10-22-2-16-22-16h-9v40h8zm43 46 3-2 3-4 1-25v-23l-2-3-4-2-2-1q1-3 14-3h5v27l1 29 4 5q10 4-10 4-15 1-13-2m105 1q0-2 3-3l3-4 1-40c0-41 0-43-5-44q-3 0-3-2-2-2 10-2h9v21l1 21 5-4q7-7 16-7 11 0 15 8c2 5 2 6 3 27l1 24 4 2 2 2q2 3-13 2-15 1-13-2l2-2c5-2 5-4 5-24 0-17 0-20-2-24q-6-11-19-2c-6 5-7 7-7 26l1 19 4 5q10 4-10 4zm156 0 3-3c5-3 5-4 5-42l-1-37-4-5-3-3 23-1c21 1 23 1 27 3q14 5 14 21 0 25-26 28h-18v14l1 17 4 5 4 3-14 1zm39-45q12-5 12-20 0-13-8-18c-4-2-6-2-14-2h-9v41h8zm252 44 2-2c6-2 6-1 6-42l-1-41q-1-3-5-5l-3-3 10-1h10v43l1 45 3 4q3 1 3 3l-13 1q-15 1-13-2m-545-82v-7h12v13h-12z"></path></g><defs><clipPath id="a"><path fill="#fff" d="M0 0h999v458H0z"></path></clipPath><clipPath id="c"><path fill="#fff" d="M0 507h1042v126H0z"></path></clipPath><linearGradient id="b" x1=".3" x2="998.4" y1="228.3" y2="228.3" gradientUnits="userSpaceOnUse"><stop stop-color="#e71f74"></stop><stop offset="1" stop-color="#ec691f"></stop></linearGradient></defs></svg> 